<svg width="26" height="30" viewBox="0 0 26 30" fill="none" xmlns="http://www.w3.org/2000/svg">
<path fill-rule="evenodd" clip-rule="evenodd" d="M12.8937 6.79304C13.2893 9.71718 12.9838 12.1199 12.9838 12.1199C12.6148 11.8474 12.2334 11.6223 11.8827 11.4411C12.6739 8.41496 11.8141 3.22664 11.8141 3.22664L12.4486 3.61939C12.4486 3.6195 12.498 3.86932 12.8937 6.79304Z" fill="#373435"/>
<path fill-rule="evenodd" clip-rule="evenodd" d="M1.28857 11.4412H24.4096C25.0859 11.4412 25.6393 11.9946 25.6393 12.6708V28.535C25.6393 29.2113 25.0859 29.7647 24.4096 29.7647H1.28857C0.612018 29.7647 0.0588074 29.2113 0.0588074 28.535V12.6708C0.0588074 11.9946 0.612018 11.4412 1.28857 11.4412Z" fill="#FBC195"/>
<path fill-rule="evenodd" clip-rule="evenodd" d="M7.68387 24.1691C7.68387 24.1691 3.19492 17.5901 3.93298 16.545C4.67094 15.4995 15.8006 15.2535 18.8751 15.9297C21.95 16.6064 22.503 17.0366 21.7039 18.6355C20.9043 20.2341 18.6295 24.1077 17.4612 24.3537C16.2924 24.5997 10.205 24.6611 7.68387 24.1691Z" fill="#373435"/>
<path fill-rule="evenodd" clip-rule="evenodd" d="M9.32107 20.6022C9.7217 20.6022 10.0484 19.8756 10.0484 18.9845C10.0484 18.0933 9.7217 17.3667 9.32107 17.3667C8.92065 17.3667 8.5939 18.0933 8.5939 18.9845C8.5938 19.8756 8.92065 20.6022 9.32107 20.6022Z" fill="#FBC195"/>
<path fill-rule="evenodd" clip-rule="evenodd" d="M16.7926 20.6022C17.193 20.6022 17.5197 19.8756 17.5197 18.9845C17.5197 18.0933 17.193 17.3667 16.7926 17.3667C16.3919 17.3667 16.0654 18.0933 16.0654 18.9845C16.0653 19.8756 16.3918 20.6022 16.7926 20.6022Z" fill="#FBC195"/>
<path d="M12.286 4.13371C13.3301 4.13371 14.1765 3.28735 14.1765 2.24332C14.1765 1.19928 13.3301 0.352936 12.286 0.352936C11.2419 0.352936 10.3955 1.19928 10.3955 2.24332C10.3955 3.28735 11.2419 4.13371 12.286 4.13371Z" fill="#FBC195"/>
</svg>
